<?xml version="1.0" encoding="UTF-8" standalone="no"?>
<!-- Created with Inkscape (http://www.inkscape.org/) -->

<svg
   width="4000"
   height="4000"
   viewBox="0 0 4000 4000.0002"
   version="1.1"
   id="svg1"
   inkscape:version="1.3 (0e150ed6c4, 2023-07-21)"
   sodipodi:docname="bg_gray.svg"
   xmlns:inkscape="http://www.inkscape.org/namespaces/inkscape"
   xmlns:sodipodi="http://sodipodi.sourceforge.net/DTD/sodipodi-0.dtd"
   xmlns="http://www.w3.org/2000/svg"
   xmlns:svg="http://www.w3.org/2000/svg">
  <sodipodi:namedview
     id="namedview1"
     pagecolor="#505050"
     bordercolor="#ffffff"
     borderopacity="1"
     inkscape:showpageshadow="0"
     inkscape:pageopacity="0"
     inkscape:pagecheckerboard="1"
     inkscape:deskcolor="#505050"
     inkscape:document-units="px"
     showgrid="true"
     inkscape:zoom="0.1767767"
     inkscape:cx="1863.9335"
     inkscape:cy="1714.0268"
     inkscape:window-width="1876"
     inkscape:window-height="1006"
     inkscape:window-x="0"
     inkscape:window-y="0"
     inkscape:window-maximized="1"
     inkscape:current-layer="layer1">
    <inkscape:grid
       id="grid1"
       units="px"
       originx="0"
       originy="0"
       spacingx="1000"
       spacingy="1000"
       empcolor="#0099e5"
       empopacity="0.30196078"
       color="#0099e5"
       opacity="0.14901961"
       empspacing="1"
       dotted="false"
       gridanglex="30"
       gridanglez="30"
       visible="true" />
  </sodipodi:namedview>
  <defs
     id="defs1" />
  <g
     inkscape:label="Layer 1"
     inkscape:groupmode="layer"
     id="layer1">
    <rect
       style="fill:#1a1a1a"
       id="rect1"
       width="4000"
       height="999.99994"
       x="0"
       y="0" />
    <path
       style="fill:#666666"
       d="M 0,0 C 1000,0 1000,999.99995 2000,999.99995 3000,999.99995 3000,0 4000,0 c 0.1041,0 0,1002.0442 0,1002.0442 v 997.9557 H 0 Z"
       id="path1"
       sodipodi:nodetypes="csscccc" />
    <path
       style="fill:#4d4d4d"
       d="M 0,999.99995 C 1000,999.99995 1000,2000 2000,2000 3000,2000 3000,999.99995 4000,999.99995 c 0.1041,0 0,1002.04425 0,1002.04425 v 997.9557 H 0 Z"
       id="path1-2"
       sodipodi:nodetypes="csscccc" />
    <path
       style="fill:#333333"
       d="m 0,1999.9998 c 1000,0 1000,1000.0001 2000,1000.0001 1000,0 1000,-1000.0001 2000,-1000.0001 0.1041,0 0,1002.0443 0,1002.0443 v 997.9557 H 0 Z"
       id="path1-2-9"
       sodipodi:nodetypes="csscccc" />
    <path
       style="fill:#1a1a1a"
       d="m 0,2999.9997 c 1000,0 1000,1000.0001 2000,1000.0001 1000,0 1000,-1000.0001 2000,-1000.0001 0.1041,0 0,1002.0443 0,1002.0443 v 0 L 0,4000 Z"
       id="path1-2-9-9"
       sodipodi:nodetypes="csscccc" />
  </g>
</svg>
